#!OML:ASF F:\VICON\USERDATA\INSTALL\rory3\rory3.ASF
:FULLY-SPECIFIED
:DEGREES
19
root 0.3679510743258033 18.925783424699922 -13.87949023219048 3.438173491755766 3.7625777757779653 -4.263972511158475
lfemur -29.27809365277833 -3.458915265863791 -17.788703218186146
ltibia 20.315812173235997
lfoot 7.192908397069068 -7.544762386738753
ltoes -27.097786094922924
rfemur 11.610085668254625 8.844176523099893 34.483889999526134
rtibia 54.3980017138156
rfoot 21.83229017085814 -12.439087433435574
rtoes 20.030888955921935
lowerback 13.769704165769406 1.9954808978770728 5.963067144842613
upperback -1.7726977002254543 3.8350287149071685 1.6185980900024426
thorax -9.39448568060842 1.5732896842236097 -2.4388083849792794
lowerneck -19.672894012221203 -6.112816635096543 -2.209761474919582
upperneck 11.464484782105952 -8.286686722812354 3.9213357213048
head 6.9605338063022995 -3.7192465020773775 0.6646600851505817
lclavicle -1.544432592472505e-15 -3.296202364162074e-15
lhumerus -68.00388553627305 -4.105066977777918 86.3267085863412
lradius 110.6480024253245
lwrist 29.597304473329977
lhand -21.358213465786076 4.418955820691117
lfingers 7.12502
lthumb 5.0284666850493585 34.339296002272505
rclavicle -1.544432592472505e-15 -3.296202364162074e-15
rhumerus -41.16740646181423 18.829289694841155 -95.91120536157186
rradius 124.44998512318439
rwrist -23.44759637353017
rhand -15.404414143982443 43.78068721818231
rfingers 7.12502
rthumb 10.774686041872478 14.077086856321822
20
root 0.38131160700648037 18.818285273582244 -12.887690775909231 2.8068871536903837 4.3718366235336905 -3.6678150416167026
lfemur -27.168094911313425 -4.381093399908548 -18.7381016876035
ltibia 18.764212611795635
lfoot 8.571757768012619 -9.138510226418488
ltoes -19.526494087406327
rfemur 9.034457382014958 7.506419774135232 33.243492192453644
rtibia 63.039098769424015
rfoot 22.63738969180802 -13.317586031411787
rtoes 17.44659044488526
lowerback 14.228901883713503 1.8053923090035977 5.381399118363218
upperback -1.4729115368331276 3.4747804903452435 1.361510146385356
thorax -9.371605917565843 1.428031327518129 -2.330329081679095
lowerneck -19.386495741708885 -6.038397143841797 -2.241740605576238
upperneck 10.408690375659685 -8.170847257278847 4.1771939650699315
head 6.58000925470141 -3.6659769827929702 0.78891215770902
lclavicle -1.5444324506298544e-15 -3.296202317957674e-15
lhumerus -66.75198594357371 -4.714655566847682 86.37970865209725
lradius 110.462002713856
lwrist 29.67930427369692
lhand -22.283009891165985 4.685274960996354
lfingers 7.12502
lthumb 4.135460064153263 34.62489493114715
rclavicle -1.5444324506298544e-15 -3.296202317957674e-15
rhumerus -41.980205803160445 19.162889176767116 -97.40820135896554
rradius 121.89598765640241
rwrist -19.552710713359268
rhand -20.256592187964696 40.632596460794225
rfingers 7.12502
rthumb 6.092097851988063 10.740196667122518
21
root 0.37556921691245265 18.55463466505955 -11.847350257582228 2.231834916619338 5.244755400038729 -2.7377936886495866
lfemur -26.144993910320856 -3.444993363509532 -20.04272972495235
ltibia 20.260679530135185
lfoot 9.548215202776614 -14.64106484489802
ltoes -15.075912245097067
rfemur 6.168055783861439 5.528688707492473 30.993988292031933
rtibia 71.88099049532192
rfoot 22.621579552164413 -13.294335559501416
rtoes 11.80991894802165
lowerback 15.007915820707556 1.6710304523602257 4.207379328687966
upperback -1.06842190460833 3.065978660555989 1.0703200429645932
thorax -9.30882737187509 1.2940217808174883 -2.1248325765587768
lowerneck -18.512679681896863 -5.986780776640504 -2.5724510849963402
upperneck 8.86567422178718 -8.02177531415907 5.191133054159077
head 5.795361003532489 -3.536023268909601 1.5069264428116358
lclavicle -1.5507841697232244e-15 -3.3007763936288957e-15
lhumerus -64.39220160685059 -4.353378072815207 86.62981925320192
lradius 110.84110271538296
lwrist 30.88880509317956
lhand -23.804468215673445 4.245168702320374
lfingers 7.12502
lthumb 2.666847424880112 33.619366121597075
rclavicle -1.5381341139564215e-15 -3.2931756832156053e-15
rhumerus -42.16626267680318 19.586081961027322 -98.6710789070399
rradius 117.17657876727029
rwrist -20.322387339130756
rhand -19.584208613863343 40.84937925643693
rfingers 7.12502
rthumb 6.194754105705895 10.914384110063146
22
root 0.3907905151726776 18.25832840378489 -10.80266540376724 1.3870377149331432 6.176223375560845 -2.4954971973620483
lfemur -25.40374115675463 -2.693225607720643 -20.19928197748272
ltibia 24.960029015307644
lfoot 7.554115394422684 -18.028783583067092
ltoes -10.782552538284156
rfemur 3.4438985995932807 3.1162039953323943 29.23420476303847
rtibia 80.25934361513063
rfoot 21.586673449607396 -12.556014750159992
rtoes 14.840889639945784
lowerback 16.226976613920815 1.4081856682735823 3.883327327450807
upperback -0.7095001560431495 2.635971186755046 0.9527593074303882
thorax -9.543847306827745 1.083665668203554 -1.964391380314079
lowerneck -18.146873723193394 -5.881777790205168 -2.640615171495695
upperneck 8.549203219378468 -8.00508566957831 5.8267920183057
head 5.669666621335102 -3.4819414270527873 1.712907509889703
lclavicle -1.5489868397325757e-15 -3.2995176981453703e-15
lhumerus -62.23341218066589 -4.124566863805388 86.80404945955277
lradius 110.83940454669701
lwrist 31.94002026084028
lhand -26.077511496175667 6.00831922191265
lfingers 7.12502
lthumb 0.5293213342959839 35.345091271171505
rclavicle -1.539622879977721e-15 -3.294261970540554e-15
rhumerus -42.65396552689563 18.74502116758529 -99.84983589998566
rradius 112.05643542152397
rwrist -21.525109123534786
rhand -19.659597758405983 39.378805427272795
rfingers 7.12502
rthumb 6.004246786522629 8.909258664276063
